<svg xmlns="http://www.w3.org/2000/svg" style="display: none;">
  <symbol id="icon1" viewBox="0 0 10 14">
    <path d="M5.89218 0.42C5.89442 0.39678 5.89999 0.366731 5.89999 0.341464C5.89999 0.152976 5.76063 0 5.5889 0C5.51579 0 5.46441 0.0300488 5.44452 0.0385853C4.3883 0.491366 0.299988 4.95669 0.299988 8.87803C0.299988 11.7067 2.38941 14 4.96665 14C7.80059 14 9.63332 11.38 9.63332 8.87803C9.63332 4.71663 5.16486 3.94834 5.89218 0.42Z" fill="#3698FA"/>
  </symbol>
  <symbol id="icon2" viewBox="0 0 10 14">
    <path d="M1.22008 13.9124L3.83341 7.96245H0.47061L3.75762 0.0874021H9.13852L6.1518 5.33741H9.4608L1.41178 13.9124H1.22008Z" fill="#FFB82C"/>
    <path d="M8.98285 0.175003L5.99613 5.42501H9.25437L1.36962 13.825H1.35935L3.97268 7.87502H0.607456L3.82148 0.175003H8.98285ZM9.29398 0H3.69399L0.333984 8.04998H3.69399L1.08065 14H1.45398L9.66732 5.25001H6.30736L9.29398 0Z" fill="#FFB82C"/>
  </symbol>
  <symbol id="icon3" viewBox="0 0 10 14">
    <path d="M8.4219 3.34243C8.4219 3.45269 8.11079 5.69445 7.17745 6.6132C8.4219 1.10526 3.75523 0 3.75523 0C3.75523 0 4.47079 2.75443 3.44412 4.07744C3.3819 2.57068 2.66634 1.65193 2.66634 1.65193C2.13745 4.37144 0.333008 6.72346 0.333008 8.48746C0.333008 11.5378 2.41745 14 4.99967 14C7.5819 14 9.35523 11.7895 9.66634 8.48746C9.66634 6.28245 9.66634 4.78947 8.4219 3.34243Z" fill="#E62E05"/>
    <path d="M6.55523 10.4474C6.55523 11.4053 5.87079 12.1579 4.99967 12.1579C4.12856 12.1579 3.44412 11.4053 3.44412 10.4474C3.44412 9.48953 4.99967 6.17108 4.99967 6.17108C4.99967 6.17108 6.55523 9.48953 6.55523 10.4474Z" fill="#FEF0ED"/>
  </symbol>
  <symbol id="icon4" viewBox="0 0 10 14">
    <path d="M5.89218 0.42C5.89442 0.39678 5.89999 0.366731 5.89999 0.341464C5.89999 0.152976 5.76063 0 5.5889 0C5.51579 0 5.46441 0.0300488 5.44452 0.0385853C4.3883 0.491366 0.299988 4.95669 0.299988 8.87803C0.299988 11.7067 2.38941 14 4.96665 14C7.80059 14 9.63332 11.38 9.63332 8.87803C9.63332 4.71663 5.16486 3.94834 5.89218 0.42Z" fill="#F46B4D"/>
  </symbol>
</svg>
